G75*
%MOIN*%
%OFA0B0*%
%FSLAX25Y25*%
%IPPOS*%
%LPD*%
%AMOC8*
5,1,8,0,0,1.08239X$1,22.5*
%
%ADD10C,0.01000*%
%ADD11C,0.01100*%
%ADD12C,0.00800*%
D10*
X0003000Y0006500D02*
X0008000Y0001500D01*
X0098000Y0001500D01*
X0103000Y0006500D01*
X0103000Y0096500D01*
X0098000Y0101500D01*
X0008000Y0101500D01*
X0003000Y0096500D01*
X0003000Y0006500D01*
D11*
X0031013Y0032255D02*
X0031997Y0031271D01*
X0034950Y0031271D01*
X0031013Y0032255D02*
X0031013Y0035208D01*
X0034950Y0035208D01*
X0034950Y0037536D02*
X0034950Y0039505D01*
X0034950Y0038520D02*
X0031013Y0038520D01*
X0031013Y0039505D01*
X0029045Y0038520D02*
X0028061Y0038520D01*
X0031013Y0042013D02*
X0034950Y0042013D01*
X0031997Y0042013D02*
X0031997Y0045950D01*
X0031013Y0045950D02*
X0029045Y0043982D01*
X0031013Y0042013D01*
X0031013Y0045950D02*
X0034950Y0045950D01*
X0034950Y0074825D02*
X0034950Y0078762D01*
X0034950Y0076794D02*
X0029045Y0076794D01*
X0031013Y0078762D01*
X0031997Y0081271D02*
X0034950Y0081271D01*
X0031997Y0081271D02*
X0031013Y0082255D01*
X0031013Y0085208D01*
X0034950Y0085208D01*
X0034950Y0087536D02*
X0034950Y0089505D01*
X0034950Y0088520D02*
X0031013Y0088520D01*
X0031013Y0089505D01*
X0029045Y0088520D02*
X0028061Y0088520D01*
X0030029Y0092013D02*
X0029045Y0092997D01*
X0029045Y0095950D01*
X0034950Y0095950D01*
X0034950Y0092997D01*
X0033966Y0092013D01*
X0030029Y0092013D01*
X0071545Y0092997D02*
X0071545Y0095950D01*
X0077450Y0095950D01*
X0077450Y0092997D01*
X0076466Y0092013D01*
X0072529Y0092013D01*
X0071545Y0092997D01*
X0074497Y0089505D02*
X0076466Y0089505D01*
X0077450Y0088520D01*
X0077450Y0086552D01*
X0076466Y0085568D01*
X0074497Y0085568D01*
X0073513Y0086552D01*
X0073513Y0088520D01*
X0074497Y0089505D01*
X0073513Y0083059D02*
X0076466Y0083059D01*
X0077450Y0082075D01*
X0077450Y0079122D01*
X0073513Y0079122D01*
X0073513Y0076614D02*
X0073513Y0074645D01*
X0072529Y0075629D02*
X0076466Y0075629D01*
X0077450Y0074645D01*
X0077450Y0072317D02*
X0077450Y0068380D01*
X0077450Y0070348D02*
X0071545Y0070348D01*
X0073513Y0072317D01*
X0071545Y0045950D02*
X0071545Y0042997D01*
X0072529Y0042013D01*
X0074497Y0042013D01*
X0075482Y0042997D01*
X0075482Y0045950D01*
X0077450Y0045950D02*
X0071545Y0045950D01*
X0071545Y0039505D02*
X0077450Y0039505D01*
X0075482Y0037536D01*
X0077450Y0035568D01*
X0071545Y0035568D01*
X0071545Y0033059D02*
X0073513Y0031091D01*
X0071545Y0029122D01*
X0077450Y0029122D01*
X0076466Y0026614D02*
X0074497Y0026614D01*
X0073513Y0025629D01*
X0073513Y0023661D01*
X0074497Y0022677D01*
X0076466Y0022677D01*
X0077450Y0023661D01*
X0077450Y0025629D01*
X0076466Y0026614D01*
X0076466Y0020168D02*
X0073513Y0020168D01*
X0076466Y0020168D02*
X0077450Y0019184D01*
X0077450Y0016231D01*
X0073513Y0016231D01*
X0073513Y0013723D02*
X0073513Y0011754D01*
X0072529Y0012738D02*
X0076466Y0012738D01*
X0077450Y0011754D01*
X0077450Y0033059D02*
X0071545Y0033059D01*
D12*
X0046501Y0024736D02*
X0046501Y0024036D01*
X0045801Y0023335D01*
X0042298Y0023335D01*
X0042298Y0025437D01*
X0042998Y0026138D01*
X0044399Y0026138D01*
X0045100Y0025437D01*
X0045100Y0023335D01*
X0045100Y0027939D02*
X0042998Y0027939D01*
X0042298Y0028640D01*
X0042298Y0030041D01*
X0043699Y0030041D02*
X0043699Y0027939D01*
X0045100Y0027939D02*
X0045100Y0030041D01*
X0044399Y0030741D01*
X0043699Y0030041D01*
X0040896Y0032543D02*
X0040896Y0035345D01*
X0040896Y0033944D02*
X0045100Y0033944D01*
X0044399Y0041751D02*
X0041597Y0041751D01*
X0040896Y0042451D01*
X0040896Y0043853D01*
X0041597Y0044553D01*
X0044399Y0044553D01*
X0045100Y0043853D01*
X0045100Y0042451D01*
X0044399Y0041751D01*
X0045100Y0046221D02*
X0045100Y0047623D01*
X0045100Y0046922D02*
X0040896Y0046922D01*
X0040896Y0047623D02*
X0040896Y0046221D01*
X0041597Y0049424D02*
X0042998Y0049424D01*
X0043699Y0050125D01*
X0043699Y0052226D01*
X0045100Y0052226D02*
X0040896Y0052226D01*
X0040896Y0050125D01*
X0041597Y0049424D01*
X0041597Y0054028D02*
X0040896Y0054729D01*
X0040896Y0056130D01*
X0041597Y0056830D01*
X0044399Y0056830D01*
X0045100Y0056130D01*
X0045100Y0054729D01*
X0044399Y0054028D01*
X0042998Y0054028D01*
X0042998Y0055429D01*
X0042998Y0063236D02*
X0042998Y0066038D01*
X0043699Y0067840D02*
X0044399Y0067840D01*
X0045100Y0068540D01*
X0045100Y0069942D01*
X0044399Y0070642D01*
X0042998Y0069942D02*
X0042998Y0068540D01*
X0043699Y0067840D01*
X0045100Y0066038D02*
X0040896Y0066038D01*
X0041597Y0067840D02*
X0040896Y0068540D01*
X0040896Y0069942D01*
X0041597Y0070642D01*
X0042298Y0070642D01*
X0042998Y0069942D01*
X0040896Y0072444D02*
X0040896Y0075246D01*
X0045100Y0075246D01*
X0045100Y0072444D01*
X0042998Y0073845D02*
X0042998Y0075246D01*
X0040896Y0077048D02*
X0045100Y0077048D01*
X0045100Y0079850D02*
X0040896Y0079850D01*
X0042298Y0078449D01*
X0040896Y0077048D01*
X0040896Y0063236D02*
X0045100Y0063236D01*
M02*
