G75*
%MOIN*%
%OFA0B0*%
%FSLAX25Y25*%
%IPPOS*%
%LPD*%
%AMOC8*
5,1,8,0,0,1.08239X$1,22.5*
%
%ADD10C,0.01000*%
%ADD11C,0.00500*%
%ADD12C,0.00400*%
%ADD13C,0.00600*%
D10*
X0003000Y0006500D02*
X0008000Y0001500D01*
X0098000Y0001500D01*
X0103000Y0006500D01*
X0103000Y0096500D01*
X0098000Y0101500D01*
X0008000Y0101500D01*
X0003000Y0096500D01*
X0003000Y0006500D01*
X0006976Y0006815D02*
X0009339Y0006815D01*
X0026661Y0006815D01*
X0026661Y0046185D01*
X0009339Y0046185D01*
X0006976Y0046185D01*
X0006976Y0039098D01*
X0009339Y0039098D01*
X0009339Y0013902D01*
X0006976Y0013902D01*
X0006976Y0006815D01*
X0009339Y0006815D02*
X0009339Y0013902D01*
X0012094Y0006815D02*
X0023906Y0006815D01*
X0009339Y0039098D02*
X0009339Y0046185D01*
X0009339Y0056815D02*
X0006976Y0056815D01*
X0006976Y0063902D01*
X0009339Y0063902D01*
X0009339Y0089098D01*
X0006976Y0089098D01*
X0006976Y0096185D01*
X0009339Y0096185D01*
X0009339Y0089098D01*
X0009339Y0096185D02*
X0026661Y0096185D01*
X0026661Y0056815D01*
X0009339Y0056815D01*
X0009339Y0063902D01*
X0012094Y0056815D02*
X0023906Y0056815D01*
X0079339Y0056815D02*
X0079339Y0096185D01*
X0096661Y0096185D01*
X0099024Y0096185D01*
X0099024Y0089098D01*
X0096661Y0089098D01*
X0096661Y0063902D01*
X0099024Y0063902D01*
X0099024Y0056815D01*
X0096661Y0056815D01*
X0096661Y0063902D01*
X0096661Y0056815D02*
X0079339Y0056815D01*
X0079339Y0046185D02*
X0079339Y0006815D01*
X0096661Y0006815D01*
X0099024Y0006815D01*
X0099024Y0013902D01*
X0096661Y0013902D01*
X0096661Y0039098D01*
X0099024Y0039098D01*
X0099024Y0046185D01*
X0096661Y0046185D01*
X0079339Y0046185D01*
X0082094Y0046185D02*
X0093906Y0046185D01*
X0096661Y0046185D02*
X0096661Y0039098D01*
X0096661Y0013902D02*
X0096661Y0006815D01*
X0096661Y0089098D02*
X0096661Y0096185D01*
X0093906Y0096185D02*
X0082094Y0096185D01*
D11*
X0055250Y0080149D02*
X0052998Y0077146D01*
X0050746Y0080149D01*
X0042166Y0066050D02*
X0040999Y0066050D01*
X0040415Y0065467D01*
X0040415Y0064883D01*
X0040999Y0063715D01*
X0039247Y0063715D01*
X0039247Y0066050D01*
X0042166Y0066050D02*
X0042750Y0065467D01*
X0042750Y0064299D01*
X0042166Y0063715D01*
X0042750Y0062367D02*
X0042750Y0060032D01*
X0040415Y0062367D01*
X0039831Y0062367D01*
X0039247Y0061784D01*
X0039247Y0060616D01*
X0039831Y0060032D01*
X0042166Y0058774D02*
X0042166Y0058190D01*
X0042750Y0058190D01*
X0042750Y0058774D01*
X0042166Y0058774D01*
X0040999Y0056843D02*
X0040999Y0054507D01*
X0039247Y0056259D01*
X0042750Y0056259D01*
X0042166Y0053159D02*
X0039831Y0053159D01*
X0042166Y0050824D01*
X0042750Y0051408D01*
X0042750Y0052576D01*
X0042166Y0053159D01*
X0042166Y0050824D02*
X0039831Y0050824D01*
X0039247Y0051408D01*
X0039247Y0052576D01*
X0039831Y0053159D01*
X0036750Y0055735D02*
X0033247Y0055735D01*
X0034415Y0056903D01*
X0033247Y0058070D01*
X0036750Y0058070D01*
X0036750Y0059418D02*
X0036750Y0061753D01*
X0034999Y0060586D02*
X0034999Y0059418D01*
X0036750Y0059418D02*
X0033247Y0059418D01*
X0033247Y0061753D01*
X0033831Y0063101D02*
X0034415Y0063101D01*
X0034999Y0063685D01*
X0034999Y0064853D01*
X0035582Y0065437D01*
X0036166Y0065437D01*
X0036750Y0064853D01*
X0036750Y0063685D01*
X0036166Y0063101D01*
X0033831Y0063101D02*
X0033247Y0063685D01*
X0033247Y0064853D01*
X0033831Y0065437D01*
X0033247Y0066784D02*
X0036750Y0066784D01*
X0034999Y0066784D02*
X0034999Y0069120D01*
X0036750Y0069120D02*
X0033247Y0069120D01*
X0034999Y0054387D02*
X0034999Y0052052D01*
X0034999Y0050704D02*
X0035582Y0050704D01*
X0035582Y0048369D01*
X0034999Y0048369D02*
X0034415Y0048953D01*
X0034415Y0050120D01*
X0034999Y0050704D01*
X0036750Y0050120D02*
X0036750Y0048953D01*
X0036166Y0048369D01*
X0034999Y0048369D01*
X0034415Y0047021D02*
X0036750Y0045853D01*
X0034415Y0044686D01*
X0034999Y0043338D02*
X0034415Y0042754D01*
X0034415Y0041586D01*
X0034999Y0041002D01*
X0036166Y0041002D01*
X0036750Y0041586D01*
X0036750Y0042754D01*
X0036166Y0043338D01*
X0034999Y0043338D01*
X0034415Y0039685D02*
X0034415Y0039101D01*
X0035582Y0037933D01*
X0034415Y0037933D02*
X0036750Y0037933D01*
X0036166Y0036585D02*
X0034999Y0036585D01*
X0034999Y0035418D01*
X0036166Y0036585D02*
X0036750Y0036001D01*
X0036750Y0034834D01*
X0036166Y0034250D01*
X0033831Y0034250D01*
X0033247Y0034834D01*
X0033247Y0036001D01*
X0033831Y0036585D01*
X0039247Y0036001D02*
X0039247Y0034834D01*
X0039831Y0034250D01*
X0039247Y0036001D02*
X0039831Y0036585D01*
X0040415Y0036585D01*
X0042750Y0034250D01*
X0042750Y0036585D01*
X0042166Y0037933D02*
X0039831Y0040268D01*
X0042166Y0040268D01*
X0042750Y0039685D01*
X0042750Y0038517D01*
X0042166Y0037933D01*
X0039831Y0037933D01*
X0039247Y0038517D01*
X0039247Y0039685D01*
X0039831Y0040268D01*
X0040415Y0041616D02*
X0039247Y0042784D01*
X0042750Y0042784D01*
X0042750Y0041616D02*
X0042750Y0043952D01*
X0042166Y0045299D02*
X0042750Y0045883D01*
X0042750Y0047051D01*
X0042166Y0047635D01*
X0041582Y0047635D01*
X0040999Y0047051D01*
X0040999Y0045299D01*
X0042166Y0045299D01*
X0040999Y0045299D02*
X0039831Y0046467D01*
X0039247Y0047635D01*
X0042166Y0048983D02*
X0042166Y0049566D01*
X0042750Y0049566D01*
X0042750Y0048983D01*
X0042166Y0048983D01*
X0021937Y0046185D02*
X0014063Y0046185D01*
X0014063Y0096185D02*
X0021937Y0096185D01*
X0084063Y0056815D02*
X0091937Y0056815D01*
X0091937Y0006815D02*
X0084063Y0006815D01*
D12*
X0092498Y0010134D02*
X0092498Y0011068D01*
X0092498Y0010601D02*
X0094833Y0010601D01*
X0095300Y0010134D01*
X0095300Y0009667D01*
X0094833Y0009200D01*
X0093899Y0012147D02*
X0093899Y0014015D01*
X0095300Y0013548D02*
X0092498Y0013548D01*
X0093899Y0012147D01*
X0067800Y0017167D02*
X0067800Y0017634D01*
X0067333Y0018101D01*
X0064998Y0018101D01*
X0064998Y0017634D02*
X0064998Y0018568D01*
X0064998Y0019647D02*
X0064998Y0021048D01*
X0065465Y0021515D01*
X0066399Y0021515D01*
X0066866Y0021048D01*
X0066866Y0019647D01*
X0067800Y0019647D02*
X0064998Y0019647D01*
X0065932Y0022593D02*
X0064998Y0023527D01*
X0067800Y0023527D01*
X0067800Y0022593D02*
X0067800Y0024461D01*
X0067800Y0017167D02*
X0067333Y0016700D01*
X0025300Y0014015D02*
X0025300Y0012147D01*
X0023432Y0014015D01*
X0022965Y0014015D01*
X0022498Y0013548D01*
X0022498Y0012614D01*
X0022965Y0012147D01*
X0022498Y0011068D02*
X0022498Y0010134D01*
X0022498Y0010601D02*
X0024833Y0010601D01*
X0025300Y0010134D01*
X0025300Y0009667D01*
X0024833Y0009200D01*
X0024833Y0059200D02*
X0025300Y0059667D01*
X0025300Y0060134D01*
X0024833Y0060601D01*
X0022498Y0060601D01*
X0022498Y0060134D02*
X0022498Y0061068D01*
X0023432Y0062147D02*
X0022498Y0063081D01*
X0025300Y0063081D01*
X0025300Y0062147D02*
X0025300Y0064015D01*
X0092498Y0063548D02*
X0092498Y0062614D01*
X0092965Y0062147D01*
X0092498Y0061068D02*
X0092498Y0060134D01*
X0092498Y0060601D02*
X0094833Y0060601D01*
X0095300Y0060134D01*
X0095300Y0059667D01*
X0094833Y0059200D01*
X0094833Y0062147D02*
X0095300Y0062614D01*
X0095300Y0063548D01*
X0094833Y0064015D01*
X0094366Y0064015D01*
X0093899Y0063548D01*
X0093899Y0063081D01*
X0093899Y0063548D02*
X0093432Y0064015D01*
X0092965Y0064015D01*
X0092498Y0063548D01*
D13*
X0068000Y0064000D02*
X0068000Y0059000D01*
X0065500Y0056500D01*
X0050500Y0056500D01*
X0048000Y0054000D01*
X0048000Y0049000D01*
X0050500Y0046500D01*
X0065500Y0046500D01*
X0068000Y0044000D01*
X0068000Y0039000D01*
X0065500Y0036500D01*
X0068000Y0034000D01*
X0068000Y0029000D01*
X0065500Y0026500D01*
X0050500Y0026500D01*
X0048000Y0029000D01*
X0048000Y0034000D01*
X0050500Y0036500D01*
X0065500Y0036500D01*
X0065500Y0046500D02*
X0068000Y0049000D01*
X0068000Y0054000D01*
X0065500Y0056500D01*
X0068000Y0064000D02*
X0065500Y0066500D01*
X0050500Y0066500D01*
X0048000Y0064000D01*
X0048000Y0059000D01*
X0050500Y0056500D01*
X0050500Y0046500D02*
X0048000Y0044000D01*
X0048000Y0039000D01*
X0050500Y0036500D01*
X0050500Y0066500D02*
X0048000Y0069000D01*
X0048000Y0074000D01*
X0050500Y0076500D01*
X0065500Y0076500D01*
X0068000Y0074000D01*
X0068000Y0069000D01*
X0065500Y0066500D01*
M02*
