%
M48
M72
T01C0.03150
T02C0.04000
%
T01
X18000Y14689
X18000Y22563
X18000Y30437
X18000Y38311
X18000Y64689
X18000Y72563
X18000Y80437
X18000Y88311
X88000Y88311
X88000Y80437
X88000Y72563
X88000Y64689
X88000Y38311
X88000Y30437
X88000Y22563
X88000Y14689
T02
X53000Y31500
X63000Y31500
X63000Y41500
X53000Y41500
X53000Y51500
X53000Y61500
X63000Y61500
X63000Y51500
X63000Y71500
X53000Y71500
M30
