G75*
%MOIN*%
%OFA0B0*%
%FSLAX25Y25*%
%IPPOS*%
%LPD*%
%AMOC8*
5,1,8,0,0,1.08239X$1,22.5*
%
%ADD10C,0.01000*%
%ADD11R,0.05150X0.05150*%
%ADD12C,0.05150*%
%ADD13OC8,0.06000*%
%ADD14C,0.03200*%
D10*
X0003000Y0006500D02*
X0008000Y0001500D01*
X0098000Y0001500D01*
X0103000Y0006500D01*
X0103000Y0096500D01*
X0098000Y0101500D01*
X0008000Y0101500D01*
X0003000Y0096500D01*
X0003000Y0006500D01*
D11*
X0018000Y0038311D03*
X0018000Y0088311D03*
X0088000Y0064689D03*
X0088000Y0014689D03*
D12*
X0088000Y0022563D03*
X0088000Y0030437D03*
X0088000Y0038311D03*
X0088000Y0072563D03*
X0088000Y0080437D03*
X0088000Y0088311D03*
X0018000Y0080437D03*
X0018000Y0072563D03*
X0018000Y0064689D03*
X0018000Y0030437D03*
X0018000Y0022563D03*
X0018000Y0014689D03*
D13*
X0053000Y0031500D03*
X0063000Y0031500D03*
X0063000Y0041500D03*
X0053000Y0041500D03*
X0053000Y0051500D03*
X0053000Y0061500D03*
X0063000Y0061500D03*
X0063000Y0051500D03*
X0063000Y0071500D03*
X0053000Y0071500D03*
D14*
X0023000Y0071500D01*
X0021937Y0072563D01*
X0018000Y0072563D01*
X0013000Y0067563D01*
X0013000Y0026500D01*
X0016937Y0022563D01*
X0018000Y0022563D01*
X0018000Y0014700D02*
X0018000Y0014689D01*
X0018000Y0014700D02*
X0036000Y0014700D01*
X0052800Y0031500D01*
X0053000Y0031500D01*
X0054300Y0030600D01*
X0058800Y0026100D01*
X0065100Y0026100D01*
X0077100Y0038100D01*
X0087900Y0038100D01*
X0088000Y0038311D01*
X0093000Y0036500D02*
X0088000Y0031500D01*
X0088000Y0030437D01*
X0093000Y0036500D02*
X0093000Y0076500D01*
X0089063Y0080437D01*
X0088000Y0080437D01*
X0061937Y0080437D01*
X0053000Y0071500D01*
X0018000Y0064689D02*
X0018000Y0064500D01*
X0051000Y0031500D01*
X0053000Y0031500D01*
M02*
